/* XPM */
static char * engrid_xpm[] = {
"29 32 3 1",
" 	c None",
".	c #0000FF",
"+	c #0000FE",
"                             ",
"                ....         ",
"            +  .+..+         ",
"         ............        ",
"      +..............        ",
"      +.............+        ",
"    ................+.       ",
"   +......+...........       ",
"   ........     +.+..+.      ",
"  .......        .+...+      ",
" .......          ....+      ",
" +.....                      ",
" .....+                      ",
"+....+                  .... ",
"......               .++...+ ",
"......             +.......+ ",
".....+.         ..+........+ ",
"......+        ...........+. ",
"......+       ............   ",
".......+      .............  ",
" ......+       ....+ ......  ",
" ......+             .....++ ",
" ........             +....+ ",
"  +......             .....+ ",
"  +.......           ......+ ",
"   ........         +....... ",
"    .........+...+........+  ",
"     ....................+   ",
"      .................+     ",
"       ...............       ",
"        ++......+....        ",
"            ....             "};
